<svg width="364" height="123" viewBox="0 0 364 123" fill="none" xmlns="http://www.w3.org/2000/svg">
<path d="M38.106 122.024C26.7567 122.024 17.6687 119.891 10.842 115.624C4.01533 111.272 0.602 104.659 0.602 95.784C0.602 91.0907 1.41267 87.5067 3.034 85.032C4.65533 82.5573 7.04467 81.32 10.202 81.32C12.506 81.32 14.3833 81.9173 15.834 83.112C17.2847 84.3067 18.01 85.8427 18.01 87.72C18.01 89.4267 17.882 90.92 17.626 92.2C17.626 92.5413 17.5407 93.1387 17.37 93.992C17.2847 94.8453 17.242 95.7413 17.242 96.68C17.242 100.52 19.162 103.379 23.002 105.256C26.9273 107.133 32.3887 108.072 39.386 108.072C46.6393 108.072 52.314 106.792 56.41 104.232C60.506 101.587 62.554 97.9173 62.554 93.224C62.554 90.3227 61.6153 87.848 59.738 85.8C57.8607 83.6667 55.514 81.9173 52.698 80.552C49.882 79.1013 45.914 77.352 40.794 75.304C34.2233 72.744 28.8473 70.312 24.666 68.008C20.57 65.704 17.0287 62.5893 14.042 58.664C11.1407 54.6533 9.69 49.704 9.69 43.816C9.69 37.672 11.3113 32.2107 14.554 27.432C17.882 22.6533 22.618 18.9413 28.762 16.296C34.9913 13.6507 42.2873 12.328 50.65 12.328C56.8793 12.328 62.5967 13.2667 67.802 15.144C73.0073 16.936 77.146 19.7093 80.218 23.464C83.3753 27.2187 84.954 31.8267 84.954 37.288C84.954 42.664 84.1433 46.7173 82.522 49.448C80.9007 52.1787 78.5113 53.544 75.354 53.544C73.1353 53.544 71.258 52.8613 69.722 51.496C68.2713 50.1307 67.546 48.5093 67.546 46.632C67.546 45.0107 67.674 43.5173 67.93 42.152C68.186 39.592 68.314 37.9707 68.314 37.288C68.314 33.704 66.5647 30.9733 63.066 29.096C59.5673 27.2187 55.2153 26.28 50.01 26.28C42.6713 26.28 37.0393 27.6453 33.114 30.376C29.274 33.0213 27.354 36.776 27.354 41.64C27.354 44.8827 28.3353 47.656 30.298 49.96C32.346 52.264 34.8633 54.184 37.85 55.72C40.8367 57.256 45.018 59.0907 50.394 61.224C56.8793 63.8693 62.0847 66.2587 66.01 68.392C69.9353 70.5253 73.2633 73.4267 75.994 77.096C78.81 80.7653 80.218 85.288 80.218 90.664C80.218 100.733 76.378 108.499 68.698 113.96C61.1033 119.336 50.906 122.024 38.106 122.024ZM99.607 121.64C96.3643 121.64 94.0603 119.933 92.695 116.52C91.415 113.107 90.775 107.645 90.775 100.136C90.775 89.0427 92.3537 78.504 95.511 68.52C96.279 66.0453 97.5163 64.2533 99.223 63.144C101.015 61.9493 103.49 61.352 106.647 61.352C108.354 61.352 109.548 61.5653 110.231 61.992C110.914 62.4187 111.255 63.2293 111.255 64.424C111.255 65.7893 110.615 68.8613 109.335 73.64C108.482 77.0533 107.799 80.04 107.287 82.6C106.775 85.0747 106.348 88.1893 106.007 91.944C108.311 85.288 111.042 79.656 114.199 75.048C117.442 70.44 120.727 67.0267 124.055 64.808C127.468 62.504 130.668 61.352 133.655 61.352C136.642 61.352 138.732 62.0347 139.927 63.4C141.207 64.7653 141.847 66.856 141.847 69.672C141.847 72.4027 141.036 77.352 139.415 84.52C138.732 87.592 138.263 89.896 138.007 91.432C142.274 80.936 147.01 73.2987 152.215 68.52C157.42 63.7413 162.284 61.352 166.807 61.352C172.354 61.352 175.127 64.1253 175.127 69.672C175.127 73 174.188 79.016 172.311 87.72C170.69 95.144 169.879 100.051 169.879 102.44C169.879 105.853 171.116 107.56 173.591 107.56C175.298 107.56 177.303 106.536 179.607 104.488C181.996 102.355 185.154 98.9413 189.079 94.248C190.103 93.0533 191.255 92.456 192.535 92.456C193.644 92.456 194.498 92.968 195.095 93.992C195.778 95.016 196.119 96.424 196.119 98.216C196.119 101.629 195.308 104.275 193.687 106.152C190.018 110.675 186.05 114.387 181.783 117.288C177.602 120.189 172.823 121.64 167.447 121.64C163.095 121.64 159.81 120.403 157.591 117.928C155.372 115.368 154.263 111.699 154.263 106.92C154.263 104.531 154.86 100.264 156.055 94.12C157.164 88.744 157.719 85.032 157.719 82.984C157.719 81.6187 157.25 80.936 156.311 80.936C155.202 80.936 153.623 82.3867 151.575 85.288C149.527 88.104 147.479 91.8587 145.431 96.552C143.383 101.245 141.719 106.195 140.439 111.4C139.5 115.496 138.391 118.227 137.111 119.592C135.916 120.957 133.954 121.64 131.223 121.64C128.407 121.64 126.274 120.317 124.823 117.672C123.458 114.941 122.775 111.656 122.775 107.816C122.775 104.573 123.202 99.88 124.055 93.736C124.738 88.2747 125.079 84.6907 125.079 82.984C125.079 81.6187 124.61 80.936 123.671 80.936C122.391 80.936 120.77 82.472 118.807 85.544C116.844 88.616 114.924 92.5413 113.047 97.32C111.255 102.099 109.804 106.792 108.695 111.4C107.756 115.411 106.647 118.141 105.367 119.592C104.172 120.957 102.252 121.64 99.607 121.64ZM201.513 121.64C196.222 121.64 191.998 119.72 188.841 115.88C185.684 112.04 184.105 107.005 184.105 100.776C184.105 93.9493 185.684 87.5067 188.841 81.448C191.998 75.304 196.18 70.3973 201.385 66.728C206.676 62.9733 212.265 61.096 218.153 61.096C220.03 61.096 221.268 61.48 221.865 62.248C222.548 62.9307 223.102 64.2107 223.529 66.088C225.321 65.7467 227.198 65.576 229.161 65.576C233.342 65.576 235.433 67.0693 235.433 70.056C235.433 71.848 234.793 76.1147 233.513 82.856C231.55 92.6693 230.569 99.496 230.569 103.336C230.569 104.616 230.868 105.64 231.465 106.408C232.148 107.176 233.001 107.56 234.025 107.56C235.646 107.56 237.609 106.536 239.913 104.488C242.217 102.355 245.332 98.9413 249.257 94.248C250.281 93.0533 251.433 92.456 252.713 92.456C253.822 92.456 254.676 92.968 255.273 93.992C255.956 95.016 256.297 96.424 256.297 98.216C256.297 101.629 255.486 104.275 253.865 106.152C250.366 110.504 246.654 114.173 242.729 117.16C238.804 120.147 235.006 121.64 231.337 121.64C228.521 121.64 225.918 120.701 223.529 118.824C221.225 116.861 219.476 114.216 218.281 110.888C213.844 118.056 208.254 121.64 201.513 121.64ZM206.121 108.712C207.998 108.712 209.79 107.603 211.497 105.384C213.204 103.165 214.441 100.221 215.209 96.552L219.945 73C216.361 73.0853 213.033 74.4507 209.961 77.096C206.974 79.656 204.585 83.0693 202.793 87.336C201.001 91.6027 200.105 96.1253 200.105 100.904C200.105 103.549 200.617 105.512 201.641 106.792C202.75 108.072 204.244 108.712 206.121 108.712ZM254.982 121.64C251.739 121.64 249.435 119.933 248.07 116.52C246.79 113.107 246.15 107.645 246.15 100.136C246.15 89.0427 247.729 78.504 250.886 68.52C251.654 66.0453 252.891 64.2533 254.598 63.144C256.39 61.9493 258.865 61.352 262.022 61.352C263.729 61.352 264.923 61.5653 265.606 61.992C266.289 62.4187 266.63 63.2293 266.63 64.424C266.63 65.7893 265.99 68.8613 264.71 73.64C263.857 77.0533 263.174 80.04 262.662 82.6C262.15 85.16 261.723 88.3173 261.382 92.072C264.198 84.7333 267.355 78.76 270.854 74.152C274.353 69.544 277.766 66.2587 281.094 64.296C284.507 62.3333 287.622 61.352 290.438 61.352C295.985 61.352 298.758 64.1253 298.758 69.672C298.758 70.7813 298.374 73.4693 297.606 77.736C296.923 81.1493 296.582 83.2827 296.582 84.136C296.582 87.1227 297.649 88.616 299.782 88.616C302.171 88.616 305.243 86.7387 308.998 82.984C310.107 81.8747 311.259 81.32 312.454 81.32C313.563 81.32 314.417 81.832 315.014 82.856C315.697 83.7947 316.038 85.0747 316.038 86.696C316.038 89.8533 315.185 92.328 313.478 94.12C311.089 96.5947 308.273 98.728 305.03 100.52C301.873 102.227 298.502 103.08 294.918 103.08C290.395 103.08 286.939 101.928 284.55 99.624C282.246 97.32 281.094 94.2053 281.094 90.28C281.094 89 281.222 87.72 281.478 86.44C281.649 84.7333 281.734 83.5813 281.734 82.984C281.734 81.6187 281.265 80.936 280.326 80.936C279.046 80.936 277.339 82.3867 275.206 85.288C273.158 88.104 271.11 91.8587 269.062 96.552C267.014 101.245 265.35 106.195 264.07 111.4C263.131 115.411 262.022 118.141 260.742 119.592C259.547 120.957 257.627 121.64 254.982 121.64ZM358.544 107.688C362.043 108.371 363.792 110.291 363.792 113.448C363.792 115.581 362.811 117.501 360.848 119.208C358.971 120.829 356.24 121.64 352.656 121.64C346.512 121.64 341.477 119.763 337.552 116.008C333.712 112.168 331.792 107.176 331.792 101.032C331.792 97.704 333.499 95.3147 336.912 93.864C340.667 92.2427 343.355 90.536 344.976 88.744C346.597 86.8667 347.408 84.6053 347.408 81.96C347.408 80.424 347.067 79.272 346.384 78.504C345.787 77.736 345.019 77.352 344.08 77.352C341.776 77.352 339.216 79.016 336.4 82.344C333.669 85.672 331.109 89.9813 328.72 95.272C326.331 100.477 324.453 105.853 323.088 111.4C322.149 115.411 321.04 118.141 319.76 119.592C318.565 120.957 316.645 121.64 314 121.64C311.355 121.64 309.392 120.701 308.112 118.824C306.917 116.861 306.107 113.875 305.68 109.864C305.253 105.853 305.04 99.9653 305.04 92.2C305.04 79.0587 306.363 65.3627 309.008 51.112C311.739 36.8613 315.707 24.9147 320.912 15.272C326.203 5.54399 332.517 0.679993 339.856 0.679993C343.781 0.679993 346.939 2.38666 349.328 5.8C351.803 9.12799 353.04 13.48 353.04 18.856C353.04 27.4747 350.523 36.4347 345.488 45.736C340.453 54.952 332.261 65.7467 320.912 78.12C320.656 82.5573 320.528 87.1227 320.528 91.816C324.624 81.1493 329.317 73.4267 334.608 68.648C339.899 63.784 344.848 61.352 349.456 61.352C353.723 61.352 357.136 62.8027 359.696 65.704C362.341 68.6053 363.664 72.1893 363.664 76.456C363.664 81.1493 362.469 85.4587 360.08 89.384C357.691 93.3093 353.595 96.808 347.792 99.88C348.304 102.44 349.328 104.232 350.864 105.256C352.485 106.195 355.045 107.005 358.544 107.688ZM337.168 13.352C335.632 13.352 333.925 15.5707 332.048 20.008C330.171 24.36 328.336 30.2907 326.544 37.8C324.837 45.224 323.429 53.3307 322.32 62.12C327.611 55.8907 331.963 49.1067 335.376 41.768C338.875 34.4293 340.624 27.7733 340.624 21.8C340.624 19.0693 340.325 16.9787 339.728 15.528C339.131 14.0773 338.277 13.352 337.168 13.352Z" fill="#FBF9FF"/>
</svg>
